<mxfile host="www.draw.io" modified="2020-08-25T05:57:09.476Z" agent="5.0 (Windows NT 10.0; WOW64) AppleWebKit/537.36 (KHTML, like Gecko) Chrome/78.0.3904.108 Safari/537.36" etag="WR1UCEwRsC1UdDlT_ATb" version="13.4.4" type="github">
  <diagram id="gUP05R7k93YVRYVB9Epz" name="Page-1">
    <mxGraphModel dx="478" dy="194" grid="1" gridSize="10" guides="1" tooltips="1" connect="1" arrows="1" fold="1" page="1" pageScale="1" pageWidth="827" pageHeight="1169" math="0" shadow="0">
      <root>
        <mxCell id="0" />
        <mxCell id="1" parent="0" />
        <mxCell id="pm7mzIBb5eRQ0av3qH0T-1" value="&lt;b&gt;&lt;font style=&quot;font-size: 48px&quot; color=&quot;#195eff&quot;&gt;青牛软件&lt;/font&gt;&lt;/b&gt;" style="text;html=1;strokeColor=none;fillColor=none;align=center;verticalAlign=middle;whiteSpace=wrap;rounded=0;" vertex="1" parent="1">
          <mxGeometry x="230" y="110" width="240" height="20" as="geometry" />
        </mxCell>
      </root>
    </mxGraphModel>
  </diagram>
</mxfile>
